<svg width="21" height="20" viewBox="0 0 21 20" fill="none" xmlns="http://www.w3.org/2000/svg">
<g clip-path="url(#clip0_206_376)">
<rect x="3.09897" y="7" width="12" height="13" fill="#5D7290"/>
<path fill-rule="evenodd" clip-rule="evenodd" d="M11.6476 14.3919C10.0475 15.1371 8.55856 15.1279 7.55831 15.057C6.36612 14.9706 5.40721 14.6447 4.98606 14.3598C4.72621 14.1837 4.37371 14.252 4.19693 14.5126C4.02012 14.7728 4.08912 15.1246 4.34974 15.3013C5.02702 15.7601 6.22549 16.1012 7.47859 16.1916C7.69118 16.2067 7.92371 16.2167 8.17506 16.2167C9.26502 16.2167 10.6488 16.1126 12.1288 15.4243C12.4138 15.2921 12.5367 14.954 12.4038 14.6695C12.2713 14.3845 11.934 14.2616 11.649 14.3945L11.6475 14.3919H11.6476ZM17.9614 13.5511C18.0164 8.61587 18.5228 -0.71054 9.07493 0.0431787C-0.254039 0.794304 2.21965 10.6482 2.08124 13.9482C1.95759 15.6945 1.37884 17.8286 0.560181 19.9996L3.08112 20C3.33987 19.0802 3.53143 18.1696 3.6119 17.3015C3.76987 17.4114 3.93308 17.5135 4.10096 17.6075C4.38368 17.774 4.62581 17.9951 4.88346 18.2287C5.48359 18.7764 6.16459 19.3961 7.49481 19.4737C7.5834 19.4788 7.67309 19.4814 7.76206 19.4814C9.10852 19.4814 10.0283 18.8927 10.7672 18.4188C11.1212 18.1925 11.4272 17.9961 11.7162 17.9024C12.5349 17.6462 13.2498 17.2325 13.785 16.7061C13.8666 16.6255 13.9445 16.5412 14.0186 16.4537C14.3165 17.5451 14.7236 18.7738 15.1761 19.9989L20.5602 19.9985C19.2676 18.0024 17.9341 16.0462 17.9614 13.5496V13.5511V13.5511ZM2.98371 10.8659V10.8648C2.89106 9.25443 3.66137 7.89949 4.70481 7.83821C5.74862 7.77655 6.66881 9.03446 6.76106 10.6445V10.6459C6.76624 10.7323 6.76846 10.8183 6.76846 10.9032C6.43812 10.9859 6.13987 11.107 5.87227 11.2472C5.87081 11.235 5.87081 11.2236 5.87009 11.211C5.78112 10.2971 5.29243 9.60618 4.77865 9.66855C4.26449 9.73058 3.92121 10.5234 4.01093 11.4373C4.04968 11.8359 4.16446 12.1921 4.32468 12.4612C4.28443 12.4922 4.17187 12.5749 4.0434 12.6686C3.94596 12.7399 3.82859 12.8258 3.68574 12.931C3.29709 12.4209 3.03096 11.6901 2.98334 10.8622L2.98371 10.8659V10.8659ZM13.554 14.8474C13.5167 15.6989 12.4038 16.5002 11.3748 16.8213L11.3689 16.8235C10.9411 16.9627 10.5598 17.2063 10.1564 17.4647C9.47765 17.8984 8.77634 18.3472 7.7639 18.3472C7.69784 18.3472 7.62881 18.345 7.56274 18.3413C6.63521 18.2874 6.20002 17.891 5.65156 17.3901C5.36143 17.1266 5.06174 16.8527 4.67565 16.6261L4.66643 16.6209C3.83265 16.1499 3.31552 15.5646 3.28121 15.0548C3.26534 14.8012 3.3779 14.5824 3.61634 14.4023C4.1364 14.0121 4.48521 13.7575 4.71515 13.5888C4.97131 13.4013 5.04881 13.3451 5.1064 13.2902C5.15125 13.2479 5.19543 13.205 5.2389 13.1613C5.71652 12.6974 6.51487 11.9201 7.7414 11.9201C8.4914 11.9201 9.32112 12.2087 10.2051 12.7775C10.6215 13.0488 10.9839 13.1739 11.4423 13.3326C11.7576 13.4415 12.1163 13.5651 12.5947 13.7704L12.6024 13.7741C13.0487 13.9579 13.5776 14.2926 13.5525 14.8466L13.554 14.8474V14.8474ZM13.3078 12.8469C13.2201 12.802 13.1305 12.7612 13.0391 12.7247C12.6076 12.5394 12.2614 12.4147 11.9738 12.3146C12.1329 12.0046 12.2315 11.6174 12.2403 11.1974C12.2632 10.175 11.7469 9.3434 11.088 9.34227C10.4295 9.34155 9.87812 10.1687 9.85559 11.1911C9.85411 11.2244 9.85411 11.2578 9.85559 11.2911C9.45068 11.1051 9.05206 10.9685 8.66081 10.8862C8.65934 10.8475 8.65674 10.8102 8.65565 10.7714V10.7703C8.61799 8.90637 9.76074 7.36393 11.2091 7.32518C12.6578 7.28643 13.8614 8.76502 13.9002 10.6275V10.629C13.9175 11.4713 13.6913 12.2475 13.3063 12.8491L13.3078 12.8469V12.8469Z" fill="black"/>
</g>
<defs>
<clipPath id="clip0_206_376">
<rect width="20" height="20" fill="white" transform="translate(0.560181)"/>
</clipPath>
</defs>
</svg>
